<svg width="17" height="17" fill="none" xmlns="http://www.w3.org/2000/svg"><path d="M4.25.531a.531.531 0 10-1.063 0v.531H2.125A2.125 2.125 0 000 3.188V4.25h17V3.187a2.125 2.125 0 00-2.125-2.124h-1.063V.53a.531.531 0 00-1.062 0v.531h-8.5v-.53zM17 14.875V5.312H0v9.563A2.125 2.125 0 002.125 17h12.75A2.125 2.125 0 0017 14.875zm-6.906-7.438h1.062a.531.531 0 01.531.532V9.03a.531.531 0 01-.53.531h-1.063a.531.531 0 01-.531-.53V7.968a.531.531 0 01.53-.532zm3.187 0h1.063a.531.531 0 01.531.532V9.03a.531.531 0 01-.531.531H13.28a.531.531 0 01-.531-.53V7.968a.531.531 0 01.531-.532zm-11.156 3.72a.531.531 0 01.531-.532H3.72a.531.531 0 01.531.531v1.063a.531.531 0 01-.531.531H2.656a.531.531 0 01-.531-.531v-1.063zm3.719-.532h1.062a.531.531 0 01.532.531v1.063a.531.531 0 01-.532.531H5.844a.531.531 0 01-.532-.531v-1.063a.531.531 0 01.532-.531z" fill="#6B9BC0"/></svg>