<svg width="38" height="43" fill="none" xmlns="http://www.w3.org/2000/svg"><path d="M5.285 3.912A3.912 3.912 0 019.198 0h17.23l.933 9.483 9.638 1.244v27.957a3.912 3.912 0 01-3.912 3.913H9.197a3.912 3.912 0 01-3.912-3.913V3.912z" fill="#E5E5E5"/><path d="M28.906 10.571H37v8.084l-3.886-4.042-4.208-4.042z" fill="#AFAFAF" fill-opacity=".3"/><path d="M26.43.155l5.596 5.753 4.975 4.663h-6.659A3.912 3.912 0 0126.43 6.66V.155z" fill="#AFAFAF"/><path d="M5.285 24.077a2.934 2.934 0 012.934-2.934h21.182a2.934 2.934 0 012.935 2.934v10.3A2.934 2.934 0 0129.4 37.31H5.285V24.077z" fill="#AFAFAF" fill-opacity=".3"/><rect y="19.899" width="32.336" height="16.168" rx="2.934" fill="#D44848"/><path d="M8.776 24.648c.603 0 1.127.099 1.572.298.45.199.796.484 1.034.856.24.371.359.812.359 1.323 0 .504-.12.945-.359 1.323-.238.372-.583.657-1.034.856-.445.199-.969.298-1.572.298H7.204v2.01H5.91v-6.964h2.866zm-.06 3.86c.564 0 .992-.12 1.283-.358.292-.24.438-.58.438-1.025 0-.445-.146-.786-.438-1.025-.291-.239-.72-.358-1.283-.358H7.204v2.766h1.512zM13.53 24.648h3.044c.743 0 1.403.145 1.98.437a3.162 3.162 0 011.344 1.224c.318.524.477 1.131.477 1.82 0 .69-.16 1.3-.477 1.831a3.247 3.247 0 01-1.344 1.224c-.577.286-1.237.428-1.98.428H13.53v-6.964zm2.985 5.87c.51 0 .958-.096 1.343-.289.391-.199.69-.477.895-.836.212-.364.319-.786.319-1.263 0-.478-.107-.896-.319-1.254a2.026 2.026 0 00-.895-.836c-.385-.199-.833-.298-1.343-.298h-1.692v4.776h1.692zM23.54 25.732v2.12h3.364v1.094H23.54v2.666h-1.294v-6.964h5.084v1.084h-3.79z" fill="#fff"/></svg>